# xmcd
#
# Track frame offsets: 
#        150
#        12449
#        23983
#        35884
#        47652
#        60050
#        71575
#        83843
#        94939
#        106752
#        117551
#        130173
#        142853
#        154909
#        166555
#        178165
#        191149
#        205372
#        218908
#        231195
#        240808
#        247863
#        259321
#        268373
#
# Disc length: 3766 seconds
#
# Revision: 0
# Processed by: cddbd v1.5.1PL0 Copyright (c) Steve Scherf et al.
# Submitted via: ExactAudioCopy v0.95a5
#
DISCID=500eb418
DTITLE=Hank Williams - Your Cheatin' Heart
DYEAR=1999
DGENRE=Country
TTITLE0=Your Cheatin' Heart
TTITLE1=Kaw-Liga
TTITLE2=Take These Chains From My Heart
TTITLE3=Settin' The Woods On Fire
TTITLE4=I Won't Be Home No More
TTITLE5=Window Shopping
TTITLE6=I'm Sorry For You My Friend
TTITLE7=Crazy Heart
TTITLE8=Why Should We Try Anymore?
TTITLE9=Moanin' The Blues
TTITLE10=I Just Don't Like This Kind Of Living
TTITLE11=When God Comes And Gathers His Jewels
TTITLE12=Just Waitin'
TTITLE13=Lost On The River
TTITLE14=I Heard My Mother Praying For Me
TTITLE15=Jesus Remembered Me
TTITLE16=Men With Broken Hearts
TTITLE17=Beyond The Sunset
TTITLE18=Help Me Understand
TTITLE19=I Want To Live And Love
TTITLE20=Where The Soul Of Man Never Dies
TTITLE21=Baby We're Really In Love
TTITLE22=When God Dips His Love In My Heart
TTITLE23=The Funeral
EXTD=
EXTT0=
EXTT1=
EXTT2=
EXTT3=
EXTT4=
EXTT5=
EXTT6=
EXTT7=
EXTT8=
EXTT9=
EXTT10=
EXTT11=
EXTT12=
EXTT13=
EXTT14=
EXTT15=
EXTT16=
EXTT17=
EXTT18=
EXTT19=
EXTT20=
EXTT21=
EXTT22=
EXTT23=
PLAYORDER=
